<svg width="253" height="253" viewBox="0 0 253 253" fill="none" xmlns="http://www.w3.org/2000/svg">
<g filter="url(#filter0_dd_137_50)">
<path d="M77.6045 167.946C77.6097 167.946 77.6146 167.948 77.6182 167.951C77.6493 167.982 77.6813 168.012 77.7138 168.042C77.8669 168.185 78.1211 168.161 78.2425 167.993L83.0137 161.364C87.5398 153.64 88.7793 146.107 88.8268 139.912C88.8268 136.655 88.2881 133.314 87.433 130.123C86.8348 128.215 86.3932 126.246 86.1079 124.261C86.1042 124.235 86.1024 124.215 86.1024 124.189C86.1024 124.164 86.1005 124.132 86.0969 124.107C85.9099 122.787 85.785 121.437 85.7223 120.087C84.8511 98.1245 101.98 79.9942 124.544 77.9279C129.135 78.0671 137.345 79.2982 144.185 77.076C150.949 75.2018 157.095 71.5021 162.248 66.7687C162.389 66.6389 162.669 66.5016 162.917 66.3624C163.289 66.154 163.569 65.7723 163.881 65.4877L166.869 62.7596C167.181 62.4749 167.357 62.08 167.357 61.6669V60.3085C167.357 59.8188 167.11 59.3584 166.69 59.0805C147.544 46.4057 122.486 43.016 99.4707 52.2171C62.9137 66.8073 45.3956 107.634 60.332 143.381C64.0701 152.319 69.4712 160.093 76.0603 166.49C76.5653 166.984 77.0705 167.462 77.5912 167.941C77.5947 167.944 77.5995 167.946 77.6045 167.946Z" fill="url(#paint0_linear_137_50)"/>
<path d="M175.504 68.0248C175.499 68.0248 175.494 68.0228 175.49 68.0193C175.459 67.9889 175.427 67.9584 175.395 67.9279C175.243 67.7843 174.989 67.808 174.869 67.977L170.12 74.6631C165.616 82.4526 164.382 90.0494 164.335 96.2977C164.335 99.5815 164.871 102.951 165.722 106.169C166.321 108.106 166.763 110.106 167.046 112.12C167.046 112.136 167.046 112.167 167.046 112.199C167.236 113.542 167.362 114.916 167.425 116.291C168.292 138.44 151.245 156.725 128.788 158.809C124.219 158.668 116.049 157.427 109.242 159.668C102.511 161.558 96.3932 165.289 91.2656 170.063C91.1238 170.195 90.8411 170.335 90.5928 170.476C90.226 170.685 89.9526 171.066 89.6454 171.35L86.6611 174.111C86.3539 174.395 86.1804 174.787 86.1804 175.197V176.591C86.1804 177.077 86.4245 177.535 86.8397 177.814C105.894 190.599 130.835 194.019 153.742 184.738C190.124 170.024 207.558 128.85 192.694 92.7985C188.973 83.7851 183.598 75.9442 177.04 69.4928C176.538 68.9949 176.035 68.5129 175.517 68.0299C175.513 68.0266 175.509 68.0248 175.504 68.0248Z" fill="url(#paint1_linear_137_50)"/>
<path d="M174.521 67.6133C174.814 67.2852 175.32 67.242 175.667 67.5039L175.739 67.5645L175.779 67.6035C175.807 67.6208 175.833 67.6413 175.857 67.6641C176.379 68.1499 176.885 68.6352 177.392 69.1367L178.007 69.75C184.333 76.1292 189.526 83.8149 193.155 92.6074H193.156C208.011 128.634 190.839 169.737 154.785 184.85L153.93 185.202C130.863 194.547 105.748 191.102 86.5615 178.229C86.0101 177.859 85.6807 177.246 85.6807 176.591V175.197C85.6807 174.645 85.9144 174.121 86.3213 173.744L89.3057 170.983C89.4484 170.851 89.5579 170.722 89.7383 170.536C89.8992 170.371 90.0988 170.182 90.3447 170.042C90.507 169.949 90.5819 169.912 90.7188 169.833C90.8364 169.765 90.8989 169.721 90.9248 169.697C96.101 164.878 102.287 161.102 109.106 159.187C112.581 158.047 116.381 157.798 119.861 157.846C121.607 157.87 123.28 157.969 124.797 158.07C126.306 158.171 127.648 158.272 128.772 158.308C150.969 156.233 167.779 138.166 166.925 116.313C166.863 114.954 166.739 113.596 166.552 112.269L166.547 112.233V112.155C166.266 110.178 165.832 108.217 165.244 106.317L165.241 106.307L165.239 106.297C164.38 103.048 163.835 99.6343 163.835 96.2979V96.2939C163.883 89.9812 165.13 82.2945 169.688 74.4131L169.699 74.3926L169.713 74.374L174.461 67.6875L174.521 67.6133ZM100.373 51.3281C123.246 42.5978 147.99 46.1009 166.966 58.6631C167.523 59.0322 167.857 59.6485 167.857 60.3086V61.667C167.857 62.224 167.619 62.7519 167.206 63.1289L164.218 65.8574C164.072 65.9903 163.96 66.1202 163.776 66.3057C163.612 66.4712 163.41 66.6596 163.162 66.7988C163.008 66.8856 162.92 66.9291 162.791 67.0029C162.674 67.0698 162.612 67.1131 162.586 67.1367C157.39 71.9102 151.182 75.6505 144.339 77.5508C140.843 78.6865 137.018 78.9354 133.515 78.8877C131.761 78.8638 130.08 78.7654 128.556 78.665C127.039 78.5651 125.689 78.464 124.559 78.4287C102.249 80.487 85.3645 98.4041 86.2217 120.063C86.2836 121.398 86.4071 122.732 86.5918 124.036C86.5993 124.089 86.6025 124.145 86.6025 124.189L86.7158 124.924C86.956 126.39 87.2828 127.843 87.6963 129.266L87.9102 129.974L87.9131 129.983L87.916 129.994C88.7796 133.216 89.3271 136.602 89.3271 139.911V139.915C89.2792 146.176 88.0255 153.8 83.4453 161.616L83.4336 161.637L83.4199 161.655L78.6484 168.285C78.3481 168.702 77.7428 168.752 77.373 168.407C77.3594 168.394 77.3459 168.381 77.332 168.368C77.3042 168.351 77.2776 168.331 77.2529 168.309C76.7291 167.827 76.2205 167.346 75.7119 166.849C69.0753 160.406 63.6357 152.575 59.8711 143.574C44.8242 107.563 62.4759 66.4439 99.2852 51.7529L100.373 51.3281Z" stroke="#444444" stroke-miterlimit="10"/>
</g>
<defs>
<filter id="filter0_dd_137_50" x="0.839539" y="0.814243" width="251.321" height="251.319" filterUnits="userSpaceOnUse" color-interpolation-filters="sRGB">
<feFlood flood-opacity="0" result="BackgroundImageFix"/>
<feColorMatrix in="SourceAlpha" type="matrix" values="0 0 0 0 0 0 0 0 0 0 0 0 0 0 0 0 0 0 127 0" result="hardAlpha"/>
<feOffset dy="7.97394"/>
<feGaussianBlur stdDeviation="26.5798"/>
<feComposite in2="hardAlpha" operator="out"/>
<feColorMatrix type="matrix" values="0 0 0 0 0.374137 0 0 0 0 0.374137 0 0 0 0 0.374137 0 0 0 0.15 0"/>
<feBlend mode="normal" in2="BackgroundImageFix" result="effect1_dropShadow_137_50"/>
<feColorMatrix in="SourceAlpha" type="matrix" values="0 0 0 0 0 0 0 0 0 0 0 0 0 0 0 0 0 0 127 0" result="hardAlpha"/>
<feOffset dy="5.31596"/>
<feGaussianBlur stdDeviation="13.2899"/>
<feComposite in2="hardAlpha" operator="out"/>
<feColorMatrix type="matrix" values="0 0 0 0 0.233008 0 0 0 0 0.233008 0 0 0 0 0.233008 0 0 0 0.15 0"/>
<feBlend mode="normal" in2="effect1_dropShadow_137_50" result="effect2_dropShadow_137_50"/>
<feBlend mode="normal" in="SourceGraphic" in2="effect2_dropShadow_137_50" result="shape"/>
</filter>
<linearGradient id="paint0_linear_137_50" x1="126.5" y1="47" x2="126.5" y2="190" gradientUnits="userSpaceOnUse">
<stop stop-color="white"/>
<stop offset="1" stop-color="#999999"/>
</linearGradient>
<linearGradient id="paint1_linear_137_50" x1="126.5" y1="47" x2="126.5" y2="190" gradientUnits="userSpaceOnUse">
<stop stop-color="white"/>
<stop offset="1" stop-color="#999999"/>
</linearGradient>
</defs>
</svg>
